<?xml version="1.0" standalone="no"?>
<!DOCTYPE svg PUBLIC "-//W3C//DTD SVG 20010904//EN"
 "http://www.w3.org/TR/2001/REC-SVG-20010904/DTD/svg10.dtd">
<svg version="1.0" xmlns="http://www.w3.org/2000/svg"
 width="512.000000pt" height="512.000000pt" viewBox="0 0 512.000000 512.000000"
 preserveAspectRatio="xMidYMid meet">

<g transform="translate(0.000000,512.000000) scale(0.100000,-0.100000)"
fill="#000000" stroke="none">
<path d="M2300 4470 c-35 -35 -25 -59 62 -147 l82 -82 -82 -85 c-87 -88 -97
-111 -62 -146 37 -37 66 -26 154 60 l82 80 79 -80 c85 -85 109 -96 145 -60 37
37 26 66 -57 151 l-76 79 76 79 c83 85 96 120 59 154 -36 33 -63 21 -147 -63
l-79 -80 -82 80 c-88 86 -117 97 -154 60z"/>
<path d="M2452 2180 c-101 -62 -96 -214 8 -267 56 -29 94 -29 145 0 140 78 84
287 -77 287 -25 0 -56 -8 -76 -20z"/>
<path d="M417 1112 c-30 -33 -20 -65 43 -147 33 -43 60 -80 60 -83 0 -4 -26
-40 -59 -82 -72 -94 -78 -109 -50 -144 16 -21 28 -26 52 -24 27 3 51 28 194
212 90 114 163 216 163 225 0 33 -30 61 -65 61 -30 0 -41 -8 -91 -70 -31 -39
-60 -67 -64 -63 -4 4 -31 36 -59 71 -56 67 -92 80 -124 44z"/>
<path d="M4236 1108 c-9 -12 -16 -29 -16 -38 0 -9 7 -26 16 -38 14 -21 22 -22
140 -22 68 0 124 -3 124 -7 0 -4 -63 -71 -140 -148 -147 -148 -158 -167 -120
-205 19 -19 33 -20 233 -20 195 0 215 2 230 18 10 10 17 33 17 50 0 52 -27 62
-159 62 l-115 0 137 138 c115 117 137 143 137 169 0 60 -13 63 -253 63 -212 0
-216 0 -231 -22z"/>
</g>
</svg>
